<svg height="512" viewBox="0 0 42 58" width="512" xmlns="http://www.w3.org/2000/svg"><g id="001---Girl-Power-Symbol" fill="none" transform="translate(-1 -1)"><path id="Shape" d="m31 14v5h-5v-5c.0029536-.9095785.6192985-1.702609 1.5-1.93.4934825-.0998693.9993613-.1234769 1.5-.07 1.1032019.0032948 1.9967052.8967981 2 2z" fill="#f9c795"/><path id="Shape" d="m29 14v5h-3v-5c.0029536-.9095785.6192985-1.702609 1.5-1.93.8807015.227391 1.4970464 1.0204215 1.5 1.93z" fill="#fdd7ad"/><path id="Shape" d="m31 15v2h-4c-.7531164.0022826-1.4410995.4274407-1.78 1.1-.5173745-1.002442-.1778883-2.2341676.78-2.83.607-.356.686-.27 5-.27z" fill="#f9c795"/><path id="Shape" d="m11.999984 20 .000016 6c-.0048884 2.1197935 1.113927 4.0834287 2.94 5.16.6430357.3544924 1.0473663 1.0258337 1.06 1.76v7.08h12v-6.59c-.0152958-.796072.4561541-1.5210748 1.19-1.83 2.2975791-.8983497 3.8097587-3.1130379 3.81-5.58v-6z" fill="#fdd7ad"/><path id="Shape" d="m24.88 42.8c10.9334892-1.513753 18.8290062-11.2333125 18.0703355-22.2449905-.7586707-11.01167798-9.9125534-19.55658636-20.9503355-19.55658636s-20.19166476 8.54490838-20.95033549 19.55658636c-.75867072 11.011678 7.13684634 20.7312375 18.07033549 22.2449905.501169.0605761.8785995.4851853.88.99v6.21h-5c-.5522847 0-1 .4477153-1 1v2c0 .5522847.4477153 1 1 1h5v4c0 .5522847.4477153 1 1 1h2c.5522847 0 1-.4477153 1-1v-4h5c.5522847 0 1-.4477153 1-1v-2c0-.5522847-.4477153-1-1-1h-5v-6.21c.0014005-.5048147.378831-.9294239.88-.99zm-2.88-3.8c-9.3888407 0-17-7.6111593-17-17s7.6111593-17 17-17 17 7.6111593 17 17c-.0132191 9.3833598-7.6166402 16.9867809-17 17z" fill="#ff5364"/><path id="Shape" d="m16 16v4.5c0 1.3807119-1.1192881 2.5-2.5 2.5s-2.5-1.1192881-2.5-2.5v-4.5c.0032948-1.1032019.8967981-1.9967052 2-2h1c1.1032019.0032948 1.9967052.8967981 2 2z" fill="#f9c795"/><path id="Shape" d="m14 19.5c0 1.3807119-1.1192881 2.5-2.5 2.5-.3228908-.4336107-.4981462-.9593769-.5-1.5v-4.5c.0032948-1.1032019.8967981-1.9967052 2-2h.73c.363.619.27.67.27 5.5z" fill="#fdd7ad"/><path id="Shape" d="m21 14v6.5c0 1.3807119-1.1192881 2.5-2.5 2.5s-2.5-1.1192881-2.5-2.5v-6.5c.0032948-1.1032019.8967981-1.9967052 2-2h1c1.1032019.0032948 1.9967052.8967981 2 2z" fill="#f9c795"/><path id="Shape" d="m19 19.5c0 1.3807119-1.1192881 2.5-2.5 2.5-.3228908-.4336107-.4981462-.9593769-.5-1.5v-6.5c.0032948-1.1032019.8967981-1.9967052 2-2 1.244 0 1-.694 1 7.5z" fill="#fdd7ad"/><path id="Shape" d="m26 13v8.36c.0278617 1.3177005-.934659 2.4478029-2.24 2.63-.7046443.0717907-1.4067607-.1579582-1.9326611-.6324118s-.8264643-1.1492968-.8273389-1.8575882v-8.5c-.0028231-.5305905.2101411-1.0395388.59-1.41.718-.738 1.575-.59 2.41-.59 1.1032019.0032948 1.9967052.8967981 2 2z" fill="#f9c795"/><path id="Shape" d="m29 25v-2c.0000133-.2669582-.1067151-.5228394-.2964199-.7106659-.1897047-.1878265-.4466352-.2920037-.7135801-.2893341-1.6529477-.0055099-2.9900092-1.3470431-2.99-3 .0070916-1.1016187.8983813-1.9929084 2-2h4c1.1032019.0032948 1.9967052.8967981 2 2v7z" fill="#fdd7ad"/><path id="Shape" d="m28.789 25.106c-.3832439.1917278-.838451.1712656-1.2029472-.0540741-.3644961-.2253397-.5862643-.6233989-.5860528-1.0519259.0000133-.2669582-.1067151-.5228394-.2964199-.7106659-.1897047-.1878265-.4466352-.2920037-.7135801-.2893341-1.6529477-.0055099-2.9900092-1.3470431-2.99-3 .0032948-1.1032019.8967981-1.9967052 2-2h.27c-.887 1.512.448 4 2.72 4 .2669449-.0026696.5238754.1015076.7135801.2893341.1897048.1878265.2964332.4437077.2964199.7106659v2z" fill="#f9c795"/><path id="Shape" d="m22 35c-.5522847 0-1-.4477153-1-1 0-.229.052-5.645 4.553-7.895.4942949-.2468713 1.0951287-.0462949 1.342.448s.0462949 1.0951287-.448 1.342c-3.407 1.705-3.447 6.061-3.447 6.105 0 .5522847-.4477153 1-1 1z" fill="#f9c795"/><path id="Shape" d="m24 20.36c.0369627 1.4187218-1.0813697 2.5996807-2.5 2.64-.3245553-.4327404-.5-.9590745-.5-1.5v-8.5c.0032948-1.1032019.8967981-1.9967052 2-2 1.248 0 1-1.032 1 9.36z" fill="#fdd7ad"/></g></svg>